<?xml version="1.0" encoding="UTF-8" ?>
<svg version="1.1" width="50" height="50" xmlns="http://www.w3.org/2000/svg" shape-rendering="crispEdges">
<rect x="24" y="0" width="1" height="1" fill="#ECEBE7" />
<rect x="25" y="0" width="1" height="1" fill="#ECEBE7" />
<rect x="24" y="1" width="1" height="1" fill="#ECEBE7" />
<rect x="25" y="1" width="1" height="1" fill="#ECEBE7" />
<rect x="20" y="2" width="1" height="1" fill="#ECEBE7" />
<rect x="21" y="2" width="1" height="1" fill="#ECEBE7" />
<rect x="22" y="2" width="1" height="1" fill="#ECEBE7" />
<rect x="23" y="2" width="1" height="1" fill="#ECEBE7" />
<rect x="24" y="2" width="1" height="1" fill="#ECEBE7" />
<rect x="25" y="2" width="1" height="1" fill="#ECEBE7" />
<rect x="26" y="2" width="1" height="1" fill="#ECEBE7" />
<rect x="27" y="2" width="1" height="1" fill="#ECEBE7" />
<rect x="28" y="2" width="1" height="1" fill="#ECEBE7" />
<rect x="29" y="2" width="1" height="1" fill="#ECEBE7" />
<rect x="17" y="3" width="1" height="1" fill="#ECEBE7" />
<rect x="18" y="3" width="1" height="1" fill="#ECEBE7" />
<rect x="19" y="3" width="1" height="1" fill="#ECEBE7" />
<rect x="20" y="3" width="1" height="1" fill="#ECEBE7" />
<rect x="21" y="3" width="1" height="1" fill="#ECEBE7" />
<rect x="22" y="3" width="1" height="1" fill="#ECEBE7" />
<rect x="23" y="3" width="1" height="1" fill="#ECEBE7" />
<rect x="24" y="3" width="1" height="1" fill="#ECEBE7" />
<rect x="25" y="3" width="1" height="1" fill="#ECEBE7" />
<rect x="26" y="3" width="1" height="1" fill="#ECEBE7" />
<rect x="27" y="3" width="1" height="1" fill="#ECEBE7" />
<rect x="28" y="3" width="1" height="1" fill="#ECEBE7" />
<rect x="29" y="3" width="1" height="1" fill="#ECEBE7" />
<rect x="30" y="3" width="1" height="1" fill="#ECEBE7" />
<rect x="31" y="3" width="1" height="1" fill="#ECEBE7" />
<rect x="32" y="3" width="1" height="1" fill="#ECEBE7" />
<rect x="14" y="4" width="1" height="1" fill="#ECEBE7" />
<rect x="15" y="4" width="1" height="1" fill="#ECEBE7" />
<rect x="16" y="4" width="1" height="1" fill="#ECEBE7" />
<rect x="17" y="4" width="1" height="1" fill="#ECEBE7" />
<rect x="18" y="4" width="1" height="1" fill="#ECEBE7" />
<rect x="19" y="4" width="1" height="1" fill="#ECEBE7" />
<rect x="20" y="4" width="1" height="1" fill="#ECEBE7" />
<rect x="24" y="4" width="1" height="1" fill="#ECEBE7" />
<rect x="25" y="4" width="1" height="1" fill="#ECEBE7" />
<rect x="29" y="4" width="1" height="1" fill="#ECEBE7" />
<rect x="30" y="4" width="1" height="1" fill="#ECEBE7" />
<rect x="31" y="4" width="1" height="1" fill="#ECEBE7" />
<rect x="32" y="4" width="1" height="1" fill="#ECEBE7" />
<rect x="33" y="4" width="1" height="1" fill="#ECEBE7" />
<rect x="34" y="4" width="1" height="1" fill="#ECEBE7" />
<rect x="35" y="4" width="1" height="1" fill="#ECEBE7" />
<rect x="13" y="5" width="1" height="1" fill="#ECEBE7" />
<rect x="14" y="5" width="1" height="1" fill="#ECEBE7" />
<rect x="15" y="5" width="1" height="1" fill="#ECEBE7" />
<rect x="16" y="5" width="1" height="1" fill="#ECEBE7" />
<rect x="17" y="5" width="1" height="1" fill="#ECEBE7" />
<rect x="24" y="5" width="1" height="1" fill="#ECEBE7" />
<rect x="25" y="5" width="1" height="1" fill="#ECEBE7" />
<rect x="32" y="5" width="1" height="1" fill="#ECEBE7" />
<rect x="33" y="5" width="1" height="1" fill="#ECEBE7" />
<rect x="34" y="5" width="1" height="1" fill="#ECEBE7" />
<rect x="35" y="5" width="1" height="1" fill="#ECEBE7" />
<rect x="36" y="5" width="1" height="1" fill="#ECEBE7" />
<rect x="11" y="6" width="1" height="1" fill="#ECEBE7" />
<rect x="12" y="6" width="1" height="1" fill="#ECEBE7" />
<rect x="13" y="6" width="1" height="1" fill="#ECEBE7" />
<rect x="14" y="6" width="1" height="1" fill="#ECEBE7" />
<rect x="24" y="6" width="1" height="1" fill="#ECEBE7" />
<rect x="25" y="6" width="1" height="1" fill="#ECEBE7" />
<rect x="35" y="6" width="1" height="1" fill="#ECEBE7" />
<rect x="36" y="6" width="1" height="1" fill="#ECEBE7" />
<rect x="37" y="6" width="1" height="1" fill="#ECEBE7" />
<rect x="38" y="6" width="1" height="1" fill="#ECEBE7" />
<rect x="10" y="7" width="1" height="1" fill="#ECEBE7" />
<rect x="11" y="7" width="1" height="1" fill="#ECEBE7" />
<rect x="12" y="7" width="1" height="1" fill="#ECEBE7" />
<rect x="13" y="7" width="1" height="1" fill="#ECEBE7" />
<rect x="24" y="7" width="1" height="1" fill="#ECEBE7" />
<rect x="25" y="7" width="1" height="1" fill="#ECEBE7" />
<rect x="36" y="7" width="1" height="1" fill="#ECEBE7" />
<rect x="37" y="7" width="1" height="1" fill="#ECEBE7" />
<rect x="38" y="7" width="1" height="1" fill="#ECEBE7" />
<rect x="39" y="7" width="1" height="1" fill="#ECEBE7" />
<rect x="9" y="8" width="1" height="1" fill="#ECEBE7" />
<rect x="10" y="8" width="1" height="1" fill="#ECEBE7" />
<rect x="11" y="8" width="1" height="1" fill="#ECEBE7" />
<rect x="24" y="8" width="1" height="1" fill="#ECEBE7" />
<rect x="25" y="8" width="1" height="1" fill="#ECEBE7" />
<rect x="38" y="8" width="1" height="1" fill="#ECEBE7" />
<rect x="39" y="8" width="1" height="1" fill="#ECEBE7" />
<rect x="40" y="8" width="1" height="1" fill="#ECEBE7" />
<rect x="8" y="9" width="1" height="1" fill="#ECEBE7" />
<rect x="9" y="9" width="1" height="1" fill="#ECEBE7" />
<rect x="10" y="9" width="1" height="1" fill="#ECEBE7" />
<rect x="24" y="9" width="1" height="1" fill="#ECEBE7" />
<rect x="25" y="9" width="1" height="1" fill="#ECEBE7" />
<rect x="39" y="9" width="1" height="1" fill="#ECEBE7" />
<rect x="40" y="9" width="1" height="1" fill="#ECEBE7" />
<rect x="41" y="9" width="1" height="1" fill="#ECEBE7" />
<rect x="7" y="10" width="1" height="1" fill="#ECEBE7" />
<rect x="8" y="10" width="1" height="1" fill="#ECEBE7" />
<rect x="9" y="10" width="1" height="1" fill="#ECEBE7" />
<rect x="24" y="10" width="1" height="1" fill="#ECEBE7" />
<rect x="25" y="10" width="1" height="1" fill="#ECEBE7" />
<rect x="40" y="10" width="1" height="1" fill="#ECEBE7" />
<rect x="41" y="10" width="1" height="1" fill="#ECEBE7" />
<rect x="42" y="10" width="1" height="1" fill="#ECEBE7" />
<rect x="6" y="11" width="1" height="1" fill="#ECEBE7" />
<rect x="7" y="11" width="1" height="1" fill="#ECEBE7" />
<rect x="8" y="11" width="1" height="1" fill="#ECEBE7" />
<rect x="24" y="11" width="1" height="1" fill="#ECEBE7" />
<rect x="25" y="11" width="1" height="1" fill="#ECEBE7" />
<rect x="41" y="11" width="1" height="1" fill="#ECEBE7" />
<rect x="42" y="11" width="1" height="1" fill="#ECEBE7" />
<rect x="43" y="11" width="1" height="1" fill="#ECEBE7" />
<rect x="6" y="12" width="1" height="1" fill="#ECEBE7" />
<rect x="7" y="12" width="1" height="1" fill="#ECEBE7" />
<rect x="24" y="12" width="1" height="1" fill="#ECEBE7" />
<rect x="25" y="12" width="1" height="1" fill="#ECEBE7" />
<rect x="42" y="12" width="1" height="1" fill="#ECEBE7" />
<rect x="43" y="12" width="1" height="1" fill="#ECEBE7" />
<rect x="5" y="13" width="1" height="1" fill="#ECEBE7" />
<rect x="6" y="13" width="1" height="1" fill="#ECEBE7" />
<rect x="7" y="13" width="1" height="1" fill="#ECEBE7" />
<rect x="24" y="13" width="1" height="1" fill="#ECEBE7" />
<rect x="25" y="13" width="1" height="1" fill="#ECEBE7" />
<rect x="42" y="13" width="1" height="1" fill="#ECEBE7" />
<rect x="43" y="13" width="1" height="1" fill="#ECEBE7" />
<rect x="44" y="13" width="1" height="1" fill="#ECEBE7" />
<rect x="4" y="14" width="1" height="1" fill="#ECEBE7" />
<rect x="5" y="14" width="1" height="1" fill="#ECEBE7" />
<rect x="6" y="14" width="1" height="1" fill="#ECEBE7" />
<rect x="24" y="14" width="1" height="1" fill="#ECEBE7" />
<rect x="25" y="14" width="1" height="1" fill="#ECEBE7" />
<rect x="43" y="14" width="1" height="1" fill="#ECEBE7" />
<rect x="44" y="14" width="1" height="1" fill="#ECEBE7" />
<rect x="45" y="14" width="1" height="1" fill="#ECEBE7" />
<rect x="4" y="15" width="1" height="1" fill="#ECEBE7" />
<rect x="5" y="15" width="1" height="1" fill="#ECEBE7" />
<rect x="44" y="15" width="1" height="1" fill="#ECEBE7" />
<rect x="45" y="15" width="1" height="1" fill="#ECEBE7" />
<rect x="4" y="16" width="1" height="1" fill="#ECEBE7" />
<rect x="5" y="16" width="1" height="1" fill="#ECEBE7" />
<rect x="44" y="16" width="1" height="1" fill="#ECEBE7" />
<rect x="45" y="16" width="1" height="1" fill="#ECEBE7" />
<rect x="3" y="17" width="1" height="1" fill="#ECEBE7" />
<rect x="4" y="17" width="1" height="1" fill="#ECEBE7" />
<rect x="5" y="17" width="1" height="1" fill="#ECEBE7" />
<rect x="44" y="17" width="1" height="1" fill="#ECEBE7" />
<rect x="45" y="17" width="1" height="1" fill="#ECEBE7" />
<rect x="46" y="17" width="1" height="1" fill="#ECEBE7" />
<rect x="3" y="18" width="1" height="1" fill="#ECEBE7" />
<rect x="4" y="18" width="1" height="1" fill="#ECEBE7" />
<rect x="45" y="18" width="1" height="1" fill="#ECEBE7" />
<rect x="46" y="18" width="1" height="1" fill="#ECEBE7" />
<rect x="3" y="19" width="1" height="1" fill="#ECEBE7" />
<rect x="4" y="19" width="1" height="1" fill="#ECEBE7" />
<rect x="45" y="19" width="1" height="1" fill="#ECEBE7" />
<rect x="46" y="19" width="1" height="1" fill="#ECEBE7" />
<rect x="2" y="20" width="1" height="1" fill="#ECEBE7" />
<rect x="3" y="20" width="1" height="1" fill="#ECEBE7" />
<rect x="4" y="20" width="1" height="1" fill="#ECEBE7" />
<rect x="45" y="20" width="1" height="1" fill="#ECEBE7" />
<rect x="46" y="20" width="1" height="1" fill="#ECEBE7" />
<rect x="47" y="20" width="1" height="1" fill="#ECEBE7" />
<rect x="2" y="21" width="1" height="1" fill="#ECEBE7" />
<rect x="3" y="21" width="1" height="1" fill="#ECEBE7" />
<rect x="46" y="21" width="1" height="1" fill="#ECEBE7" />
<rect x="47" y="21" width="1" height="1" fill="#ECEBE7" />
<rect x="2" y="22" width="1" height="1" fill="#ECEBE7" />
<rect x="3" y="22" width="1" height="1" fill="#ECEBE7" />
<rect x="46" y="22" width="1" height="1" fill="#ECEBE7" />
<rect x="47" y="22" width="1" height="1" fill="#ECEBE7" />
<rect x="2" y="23" width="1" height="1" fill="#ECEBE7" />
<rect x="3" y="23" width="1" height="1" fill="#ECEBE7" />
<rect x="46" y="23" width="1" height="1" fill="#ECEBE7" />
<rect x="47" y="23" width="1" height="1" fill="#ECEBE7" />
<rect x="0" y="24" width="1" height="1" fill="#ECEBE7" />
<rect x="1" y="24" width="1" height="1" fill="#ECEBE7" />
<rect x="2" y="24" width="1" height="1" fill="#ECEBE7" />
<rect x="3" y="24" width="1" height="1" fill="#ECEBE7" />
<rect x="4" y="24" width="1" height="1" fill="#ECEBE7" />
<rect x="5" y="24" width="1" height="1" fill="#ECEBE7" />
<rect x="6" y="24" width="1" height="1" fill="#ECEBE7" />
<rect x="7" y="24" width="1" height="1" fill="#ECEBE7" />
<rect x="8" y="24" width="1" height="1" fill="#ECEBE7" />
<rect x="9" y="24" width="1" height="1" fill="#ECEBE7" />
<rect x="10" y="24" width="1" height="1" fill="#ECEBE7" />
<rect x="11" y="24" width="1" height="1" fill="#ECEBE7" />
<rect x="12" y="24" width="1" height="1" fill="#ECEBE7" />
<rect x="13" y="24" width="1" height="1" fill="#ECEBE7" />
<rect x="14" y="24" width="1" height="1" fill="#ECEBE7" />
<rect x="35" y="24" width="1" height="1" fill="#ECEBE7" />
<rect x="36" y="24" width="1" height="1" fill="#ECEBE7" />
<rect x="37" y="24" width="1" height="1" fill="#ECEBE7" />
<rect x="38" y="24" width="1" height="1" fill="#ECEBE7" />
<rect x="39" y="24" width="1" height="1" fill="#ECEBE7" />
<rect x="40" y="24" width="1" height="1" fill="#ECEBE7" />
<rect x="41" y="24" width="1" height="1" fill="#ECEBE7" />
<rect x="42" y="24" width="1" height="1" fill="#ECEBE7" />
<rect x="43" y="24" width="1" height="1" fill="#ECEBE7" />
<rect x="44" y="24" width="1" height="1" fill="#ECEBE7" />
<rect x="45" y="24" width="1" height="1" fill="#ECEBE7" />
<rect x="46" y="24" width="1" height="1" fill="#ECEBE7" />
<rect x="47" y="24" width="1" height="1" fill="#ECEBE7" />
<rect x="48" y="24" width="1" height="1" fill="#ECEBE7" />
<rect x="49" y="24" width="1" height="1" fill="#ECEBE7" />
<rect x="0" y="25" width="1" height="1" fill="#ECEBE7" />
<rect x="1" y="25" width="1" height="1" fill="#ECEBE7" />
<rect x="2" y="25" width="1" height="1" fill="#ECEBE7" />
<rect x="3" y="25" width="1" height="1" fill="#ECEBE7" />
<rect x="4" y="25" width="1" height="1" fill="#ECEBE7" />
<rect x="5" y="25" width="1" height="1" fill="#ECEBE7" />
<rect x="6" y="25" width="1" height="1" fill="#ECEBE7" />
<rect x="7" y="25" width="1" height="1" fill="#ECEBE7" />
<rect x="8" y="25" width="1" height="1" fill="#ECEBE7" />
<rect x="9" y="25" width="1" height="1" fill="#ECEBE7" />
<rect x="10" y="25" width="1" height="1" fill="#ECEBE7" />
<rect x="11" y="25" width="1" height="1" fill="#ECEBE7" />
<rect x="12" y="25" width="1" height="1" fill="#ECEBE7" />
<rect x="13" y="25" width="1" height="1" fill="#ECEBE7" />
<rect x="14" y="25" width="1" height="1" fill="#ECEBE7" />
<rect x="35" y="25" width="1" height="1" fill="#ECEBE7" />
<rect x="36" y="25" width="1" height="1" fill="#ECEBE7" />
<rect x="37" y="25" width="1" height="1" fill="#ECEBE7" />
<rect x="38" y="25" width="1" height="1" fill="#ECEBE7" />
<rect x="39" y="25" width="1" height="1" fill="#ECEBE7" />
<rect x="40" y="25" width="1" height="1" fill="#ECEBE7" />
<rect x="41" y="25" width="1" height="1" fill="#ECEBE7" />
<rect x="42" y="25" width="1" height="1" fill="#ECEBE7" />
<rect x="43" y="25" width="1" height="1" fill="#ECEBE7" />
<rect x="44" y="25" width="1" height="1" fill="#ECEBE7" />
<rect x="45" y="25" width="1" height="1" fill="#ECEBE7" />
<rect x="46" y="25" width="1" height="1" fill="#ECEBE7" />
<rect x="47" y="25" width="1" height="1" fill="#ECEBE7" />
<rect x="48" y="25" width="1" height="1" fill="#ECEBE7" />
<rect x="49" y="25" width="1" height="1" fill="#ECEBE7" />
<rect x="2" y="26" width="1" height="1" fill="#ECEBE7" />
<rect x="3" y="26" width="1" height="1" fill="#ECEBE7" />
<rect x="46" y="26" width="1" height="1" fill="#ECEBE7" />
<rect x="47" y="26" width="1" height="1" fill="#ECEBE7" />
<rect x="2" y="27" width="1" height="1" fill="#ECEBE7" />
<rect x="3" y="27" width="1" height="1" fill="#ECEBE7" />
<rect x="46" y="27" width="1" height="1" fill="#ECEBE7" />
<rect x="47" y="27" width="1" height="1" fill="#ECEBE7" />
<rect x="2" y="28" width="1" height="1" fill="#ECEBE7" />
<rect x="3" y="28" width="1" height="1" fill="#ECEBE7" />
<rect x="46" y="28" width="1" height="1" fill="#ECEBE7" />
<rect x="47" y="28" width="1" height="1" fill="#ECEBE7" />
<rect x="2" y="29" width="1" height="1" fill="#ECEBE7" />
<rect x="3" y="29" width="1" height="1" fill="#ECEBE7" />
<rect x="4" y="29" width="1" height="1" fill="#ECEBE7" />
<rect x="45" y="29" width="1" height="1" fill="#ECEBE7" />
<rect x="46" y="29" width="1" height="1" fill="#ECEBE7" />
<rect x="47" y="29" width="1" height="1" fill="#ECEBE7" />
<rect x="3" y="30" width="1" height="1" fill="#ECEBE7" />
<rect x="4" y="30" width="1" height="1" fill="#ECEBE7" />
<rect x="45" y="30" width="1" height="1" fill="#ECEBE7" />
<rect x="46" y="30" width="1" height="1" fill="#ECEBE7" />
<rect x="3" y="31" width="1" height="1" fill="#ECEBE7" />
<rect x="4" y="31" width="1" height="1" fill="#ECEBE7" />
<rect x="45" y="31" width="1" height="1" fill="#ECEBE7" />
<rect x="46" y="31" width="1" height="1" fill="#ECEBE7" />
<rect x="3" y="32" width="1" height="1" fill="#ECEBE7" />
<rect x="4" y="32" width="1" height="1" fill="#ECEBE7" />
<rect x="5" y="32" width="1" height="1" fill="#ECEBE7" />
<rect x="44" y="32" width="1" height="1" fill="#ECEBE7" />
<rect x="45" y="32" width="1" height="1" fill="#ECEBE7" />
<rect x="46" y="32" width="1" height="1" fill="#ECEBE7" />
<rect x="4" y="33" width="1" height="1" fill="#ECEBE7" />
<rect x="5" y="33" width="1" height="1" fill="#ECEBE7" />
<rect x="44" y="33" width="1" height="1" fill="#ECEBE7" />
<rect x="45" y="33" width="1" height="1" fill="#ECEBE7" />
<rect x="4" y="34" width="1" height="1" fill="#ECEBE7" />
<rect x="5" y="34" width="1" height="1" fill="#ECEBE7" />
<rect x="44" y="34" width="1" height="1" fill="#ECEBE7" />
<rect x="45" y="34" width="1" height="1" fill="#ECEBE7" />
<rect x="4" y="35" width="1" height="1" fill="#ECEBE7" />
<rect x="5" y="35" width="1" height="1" fill="#ECEBE7" />
<rect x="6" y="35" width="1" height="1" fill="#ECEBE7" />
<rect x="24" y="35" width="1" height="1" fill="#ECEBE7" />
<rect x="25" y="35" width="1" height="1" fill="#ECEBE7" />
<rect x="43" y="35" width="1" height="1" fill="#ECEBE7" />
<rect x="44" y="35" width="1" height="1" fill="#ECEBE7" />
<rect x="45" y="35" width="1" height="1" fill="#ECEBE7" />
<rect x="5" y="36" width="1" height="1" fill="#ECEBE7" />
<rect x="6" y="36" width="1" height="1" fill="#ECEBE7" />
<rect x="7" y="36" width="1" height="1" fill="#ECEBE7" />
<rect x="24" y="36" width="1" height="1" fill="#ECEBE7" />
<rect x="25" y="36" width="1" height="1" fill="#ECEBE7" />
<rect x="42" y="36" width="1" height="1" fill="#ECEBE7" />
<rect x="43" y="36" width="1" height="1" fill="#ECEBE7" />
<rect x="44" y="36" width="1" height="1" fill="#ECEBE7" />
<rect x="6" y="37" width="1" height="1" fill="#ECEBE7" />
<rect x="7" y="37" width="1" height="1" fill="#ECEBE7" />
<rect x="24" y="37" width="1" height="1" fill="#ECEBE7" />
<rect x="25" y="37" width="1" height="1" fill="#ECEBE7" />
<rect x="42" y="37" width="1" height="1" fill="#ECEBE7" />
<rect x="43" y="37" width="1" height="1" fill="#ECEBE7" />
<rect x="6" y="38" width="1" height="1" fill="#ECEBE7" />
<rect x="7" y="38" width="1" height="1" fill="#ECEBE7" />
<rect x="8" y="38" width="1" height="1" fill="#ECEBE7" />
<rect x="24" y="38" width="1" height="1" fill="#ECEBE7" />
<rect x="25" y="38" width="1" height="1" fill="#ECEBE7" />
<rect x="41" y="38" width="1" height="1" fill="#ECEBE7" />
<rect x="42" y="38" width="1" height="1" fill="#ECEBE7" />
<rect x="43" y="38" width="1" height="1" fill="#ECEBE7" />
<rect x="7" y="39" width="1" height="1" fill="#ECEBE7" />
<rect x="8" y="39" width="1" height="1" fill="#ECEBE7" />
<rect x="9" y="39" width="1" height="1" fill="#ECEBE7" />
<rect x="24" y="39" width="1" height="1" fill="#ECEBE7" />
<rect x="25" y="39" width="1" height="1" fill="#ECEBE7" />
<rect x="40" y="39" width="1" height="1" fill="#ECEBE7" />
<rect x="41" y="39" width="1" height="1" fill="#ECEBE7" />
<rect x="42" y="39" width="1" height="1" fill="#ECEBE7" />
<rect x="8" y="40" width="1" height="1" fill="#ECEBE7" />
<rect x="9" y="40" width="1" height="1" fill="#ECEBE7" />
<rect x="10" y="40" width="1" height="1" fill="#ECEBE7" />
<rect x="24" y="40" width="1" height="1" fill="#ECEBE7" />
<rect x="25" y="40" width="1" height="1" fill="#ECEBE7" />
<rect x="39" y="40" width="1" height="1" fill="#ECEBE7" />
<rect x="40" y="40" width="1" height="1" fill="#ECEBE7" />
<rect x="41" y="40" width="1" height="1" fill="#ECEBE7" />
<rect x="9" y="41" width="1" height="1" fill="#ECEBE7" />
<rect x="10" y="41" width="1" height="1" fill="#ECEBE7" />
<rect x="11" y="41" width="1" height="1" fill="#ECEBE7" />
<rect x="24" y="41" width="1" height="1" fill="#ECEBE7" />
<rect x="25" y="41" width="1" height="1" fill="#ECEBE7" />
<rect x="38" y="41" width="1" height="1" fill="#ECEBE7" />
<rect x="39" y="41" width="1" height="1" fill="#ECEBE7" />
<rect x="40" y="41" width="1" height="1" fill="#ECEBE7" />
<rect x="10" y="42" width="1" height="1" fill="#ECEBE7" />
<rect x="11" y="42" width="1" height="1" fill="#ECEBE7" />
<rect x="12" y="42" width="1" height="1" fill="#ECEBE7" />
<rect x="13" y="42" width="1" height="1" fill="#ECEBE7" />
<rect x="24" y="42" width="1" height="1" fill="#ECEBE7" />
<rect x="25" y="42" width="1" height="1" fill="#ECEBE7" />
<rect x="36" y="42" width="1" height="1" fill="#ECEBE7" />
<rect x="37" y="42" width="1" height="1" fill="#ECEBE7" />
<rect x="38" y="42" width="1" height="1" fill="#ECEBE7" />
<rect x="39" y="42" width="1" height="1" fill="#ECEBE7" />
<rect x="11" y="43" width="1" height="1" fill="#ECEBE7" />
<rect x="12" y="43" width="1" height="1" fill="#ECEBE7" />
<rect x="13" y="43" width="1" height="1" fill="#ECEBE7" />
<rect x="14" y="43" width="1" height="1" fill="#ECEBE7" />
<rect x="24" y="43" width="1" height="1" fill="#ECEBE7" />
<rect x="25" y="43" width="1" height="1" fill="#ECEBE7" />
<rect x="35" y="43" width="1" height="1" fill="#ECEBE7" />
<rect x="36" y="43" width="1" height="1" fill="#ECEBE7" />
<rect x="37" y="43" width="1" height="1" fill="#ECEBE7" />
<rect x="38" y="43" width="1" height="1" fill="#ECEBE7" />
<rect x="13" y="44" width="1" height="1" fill="#ECEBE7" />
<rect x="14" y="44" width="1" height="1" fill="#ECEBE7" />
<rect x="15" y="44" width="1" height="1" fill="#ECEBE7" />
<rect x="16" y="44" width="1" height="1" fill="#ECEBE7" />
<rect x="17" y="44" width="1" height="1" fill="#ECEBE7" />
<rect x="24" y="44" width="1" height="1" fill="#ECEBE7" />
<rect x="25" y="44" width="1" height="1" fill="#ECEBE7" />
<rect x="32" y="44" width="1" height="1" fill="#ECEBE7" />
<rect x="33" y="44" width="1" height="1" fill="#ECEBE7" />
<rect x="34" y="44" width="1" height="1" fill="#ECEBE7" />
<rect x="35" y="44" width="1" height="1" fill="#ECEBE7" />
<rect x="36" y="44" width="1" height="1" fill="#ECEBE7" />
<rect x="14" y="45" width="1" height="1" fill="#ECEBE7" />
<rect x="15" y="45" width="1" height="1" fill="#ECEBE7" />
<rect x="16" y="45" width="1" height="1" fill="#ECEBE7" />
<rect x="17" y="45" width="1" height="1" fill="#ECEBE7" />
<rect x="18" y="45" width="1" height="1" fill="#ECEBE7" />
<rect x="19" y="45" width="1" height="1" fill="#ECEBE7" />
<rect x="20" y="45" width="1" height="1" fill="#ECEBE7" />
<rect x="24" y="45" width="1" height="1" fill="#ECEBE7" />
<rect x="25" y="45" width="1" height="1" fill="#ECEBE7" />
<rect x="29" y="45" width="1" height="1" fill="#ECEBE7" />
<rect x="30" y="45" width="1" height="1" fill="#ECEBE7" />
<rect x="31" y="45" width="1" height="1" fill="#ECEBE7" />
<rect x="32" y="45" width="1" height="1" fill="#ECEBE7" />
<rect x="33" y="45" width="1" height="1" fill="#ECEBE7" />
<rect x="34" y="45" width="1" height="1" fill="#ECEBE7" />
<rect x="35" y="45" width="1" height="1" fill="#ECEBE7" />
<rect x="17" y="46" width="1" height="1" fill="#ECEBE7" />
<rect x="18" y="46" width="1" height="1" fill="#ECEBE7" />
<rect x="19" y="46" width="1" height="1" fill="#ECEBE7" />
<rect x="20" y="46" width="1" height="1" fill="#ECEBE7" />
<rect x="21" y="46" width="1" height="1" fill="#ECEBE7" />
<rect x="22" y="46" width="1" height="1" fill="#ECEBE7" />
<rect x="23" y="46" width="1" height="1" fill="#ECEBE7" />
<rect x="24" y="46" width="1" height="1" fill="#ECEBE7" />
<rect x="25" y="46" width="1" height="1" fill="#ECEBE7" />
<rect x="26" y="46" width="1" height="1" fill="#ECEBE7" />
<rect x="27" y="46" width="1" height="1" fill="#ECEBE7" />
<rect x="28" y="46" width="1" height="1" fill="#ECEBE7" />
<rect x="29" y="46" width="1" height="1" fill="#ECEBE7" />
<rect x="30" y="46" width="1" height="1" fill="#ECEBE7" />
<rect x="31" y="46" width="1" height="1" fill="#ECEBE7" />
<rect x="32" y="46" width="1" height="1" fill="#ECEBE7" />
<rect x="20" y="47" width="1" height="1" fill="#ECEBE7" />
<rect x="21" y="47" width="1" height="1" fill="#ECEBE7" />
<rect x="22" y="47" width="1" height="1" fill="#ECEBE7" />
<rect x="23" y="47" width="1" height="1" fill="#ECEBE7" />
<rect x="24" y="47" width="1" height="1" fill="#ECEBE7" />
<rect x="25" y="47" width="1" height="1" fill="#ECEBE7" />
<rect x="26" y="47" width="1" height="1" fill="#ECEBE7" />
<rect x="27" y="47" width="1" height="1" fill="#ECEBE7" />
<rect x="28" y="47" width="1" height="1" fill="#ECEBE7" />
<rect x="29" y="47" width="1" height="1" fill="#ECEBE7" />
<rect x="24" y="48" width="1" height="1" fill="#ECEBE7" />
<rect x="25" y="48" width="1" height="1" fill="#ECEBE7" />
<rect x="24" y="49" width="1" height="1" fill="#ECEBE7" />
<rect x="25" y="49" width="1" height="1" fill="#ECEBE7" />
</svg>